# xmcd
#
# Track frame offsets:
#	150
#	13390
#	28214
#	41155
#	51959
#	64288
#	78342
#	91232
#	107516
#	117816
#	134999
#	155112
#	166916
#	179867
#	196364
#	212638
#	228008
#	248890
#	266198
#	284799
#	302333
#	316959
#	329659
#
# Disc length: 4670 seconds
#
# Revision: 0
# Processed by: cddbd v1.5.2PL0 Copyright (c) Steve Scherf et al.
# Submitted via: EasyCDDAExtractor 11.1.0.1
#
DISCID=62123c17
DTITLE=Various Artist - Country 4 Me Vol.3
DYEAR=1900
DGENRE=Country
TTITLE0=Merle Haggard - Okie From Muskogee
TTITLE1=Dwight Yoakam - Little Sister
TTITLE2=Alan Jackson - Don't Rock The Jukebox
TTITLE3=Nitty Gritty Dirt Band - Rocky Top
TTITLE4=George Strait - The Fireman
TTITLE5=Sawyer Brown - The Race Is On
TTITLE6=Hank Williams Jr. - Born To Boogie
TTITLE7=Mary Chapin Carpenter - Down At The Twist and Shout
TTITLE8=Mickey Gilley - Orange Blossom Special
TTITLE9=Alabama - Feel So Right
TTITLE10=Alabama -  Mountain Music
TTITLE11=Alan Jackson - Chattahoochee
TTITLE12=Alan Jackson - Don't Rock The Jukebox
TTITLE13=Bellamy Brothers - Redneck Girl
TTITLE14=Billy Ray Cyrus - Achy Breaky Heart
TTITLE15=Brooks And Dunn -  Boot Scootin' Boogie
TTITLE16=Brooks And Dunn - Neon Moon
TTITLE17=Charlie Daniels Band - Devil Went Down To Georgia
TTITLE18=Collin Raye - Love Me
TTITLE19=Dan Seals - Bop
TTITLE20=Dwight Yoakham - Little Sister
TTITLE21=Ernest Tubbs - Waltz Across Texas
TTITLE22=Garth Brooks -  Friends In Low Places
EXTD=
EXTT0=
EXTT1=
EXTT2=
EXTT3=
EXTT4=
EXTT5=
EXTT6=
EXTT7=
EXTT8=
EXTT9=
EXTT10=
EXTT11=
EXTT12=
EXTT13=
EXTT14=
EXTT15=
EXTT16=
EXTT17=
EXTT18=
EXTT19=
EXTT20=
EXTT21=
EXTT22=
PLAYORDER=
